<svg width="1500" height="350" viewBox="0 0 1500 350" fill="none" xmlns="http://www.w3.org/2000/svg">
<g clip-path="url(#clip0_12_44)">
<rect width="1500" height="350" fill="white"/>
<path fill-rule="evenodd" clip-rule="evenodd" d="M920.004 131.966H957.949C961.971 131.966 965.831 133.571 968.68 136.442C971.525 139.309 973.125 143.197 973.125 147.249V185.466C973.125 189.519 971.525 193.406 968.68 196.273C967.275 197.69 965.604 198.815 963.762 199.583C961.92 200.351 959.945 200.748 957.949 200.749H920.004C918.009 200.749 916.033 200.353 914.191 199.584C912.349 198.816 910.678 197.691 909.273 196.273C906.423 193.399 904.825 189.514 904.828 185.466V147.249C904.828 143.192 906.424 139.309 909.273 136.442C910.678 135.025 912.349 133.899 914.191 133.131C916.033 132.363 918.009 131.967 920.004 131.966V131.966ZM897.24 147.249C897.24 141.168 899.639 135.337 903.905 131.039C906.013 128.912 908.52 127.224 911.283 126.071C914.046 124.917 917.01 124.323 920.004 124.32H957.949C963.986 124.32 969.777 126.736 974.044 131.039C978.319 135.35 980.717 141.177 980.713 147.249V185.466C980.717 191.538 978.319 197.365 974.044 201.677C971.937 203.803 969.43 205.49 966.668 206.643C963.905 207.795 960.942 208.389 957.949 208.391H920.004C917.011 208.389 914.047 207.795 911.284 206.642C908.521 205.49 906.013 203.802 903.905 201.677C899.633 197.363 897.238 191.537 897.24 185.466V147.249V147.249ZM945.867 175.118C945.867 183.197 939.808 188.119 931.632 188.119C923.504 188.119 917.445 183.197 917.445 175.118V149.929H924.726V174.539C924.726 178.172 926.638 180.901 931.632 180.901C936.625 180.901 938.538 178.172 938.538 174.534V149.924H945.867V175.123V175.118ZM953.535 187.37V149.924H960.865V187.374H953.535V187.37Z" fill="black"/>
<path d="M520 201.32V142.76H533.44V151.52H533.68C538.48 145.12 544.52 141.92 551.8 141.92H553.48V156.92C551.4 156.76 550.04 156.68 549.4 156.68C544.44 156.68 540.52 158.28 537.64 161.48C534.84 164.6 533.44 168.64 533.44 173.6V201.32H520Z" fill="black"/>
<path d="M614.128 171.32C614.128 172.84 614.008 174.56 613.768 176.48H571.048C571.928 180.72 573.848 184.04 576.808 186.44C579.848 188.84 583.648 190.04 588.208 190.04C594.368 190.04 599.288 187.76 602.968 183.2L612.328 191.24C606.648 198.6 598.368 202.28 587.488 202.28C578.528 202.28 571.208 199.52 565.528 194C559.928 188.48 557.128 181.16 557.128 172.04C557.128 163.08 559.848 155.84 565.288 150.32C570.808 144.72 577.888 141.92 586.528 141.92C594.688 141.92 601.328 144.68 606.448 150.2C611.568 155.72 614.128 162.76 614.128 171.32ZM595.648 157.28C593.248 155.12 590.168 154.04 586.408 154.04C582.648 154.04 579.408 155.08 576.688 157.16C574.048 159.24 572.248 162.16 571.288 165.92H600.568C599.688 162.24 598.048 159.36 595.648 157.28Z" fill="black"/>
<path d="M657.631 202.28C649.471 202.28 643.151 199.36 638.671 193.52H638.431V201.32H625.591V113H639.031V149.72H639.151C643.711 144.52 649.911 141.92 657.751 141.92C665.911 141.92 672.671 144.8 678.031 150.56C683.391 156.24 686.071 163.48 686.071 172.28C686.071 181.24 683.391 188.48 678.031 194C672.671 199.52 665.871 202.28 657.631 202.28ZM643.351 185.12C646.631 188.4 650.711 190.04 655.591 190.04C660.471 190.04 664.471 188.4 667.591 185.12C670.791 181.84 672.391 177.6 672.391 172.4C672.391 166.88 670.751 162.44 667.471 159.08C664.271 155.72 660.271 154.04 655.471 154.04C650.511 154.04 646.431 155.8 643.231 159.32C640.031 162.76 638.431 167.12 638.431 172.4C638.431 177.6 640.071 181.84 643.351 185.12Z" fill="black"/>
<path d="M722.442 202.28C714.202 202.28 707.402 199.52 702.042 194C696.762 188.48 694.122 181.24 694.122 172.28C694.122 163.48 696.802 156.24 702.162 150.56C707.522 144.8 714.242 141.92 722.322 141.92C730.162 141.92 736.202 144.6 740.442 149.96L740.682 149.84V142.76H754.122V201.32H741.282V193.64L741.042 193.52C736.722 199.36 730.522 202.28 722.442 202.28ZM724.602 190.04C729.242 190.04 733.162 188.4 736.362 185.12C739.642 181.84 741.282 177.6 741.282 172.4C741.282 167.2 739.682 162.84 736.482 159.32C733.362 155.8 729.402 154.04 724.602 154.04C719.802 154.04 715.802 155.72 712.602 159.08C709.402 162.44 707.802 166.88 707.802 172.4C707.802 177.6 709.362 181.84 712.482 185.12C715.602 188.4 719.642 190.04 724.602 190.04Z" fill="black"/>
<path d="M787.401 202.28C778.041 202.28 770.161 199.44 763.761 193.76L770.481 183.68C775.121 188.24 780.761 190.52 787.401 190.52C789.961 190.52 791.961 190 793.401 188.96C794.841 187.92 795.561 186.52 795.561 184.76C795.561 183.4 794.721 182.28 793.041 181.4C791.441 180.44 788.441 179.2 784.041 177.68C778.281 175.68 773.841 173.28 770.721 170.48C767.681 167.68 766.161 163.68 766.161 158.48C766.161 153.68 768.081 149.72 771.921 146.6C775.841 143.48 780.801 141.92 786.801 141.92C794.561 141.92 801.441 144.36 807.441 149.24L800.721 159.8C796.321 155.64 791.441 153.56 786.081 153.56C784.481 153.56 783.001 154 781.641 154.88C780.361 155.68 779.721 156.92 779.721 158.6C779.721 161 782.801 163.36 788.961 165.68C796.561 168.64 801.321 170.8 803.241 172.16C807.241 174.96 809.241 179.08 809.241 184.52C809.241 189.72 807.361 194 803.601 197.36C799.921 200.64 794.521 202.28 787.401 202.28Z" fill="black"/>
<path d="M873.708 171.32C873.708 172.84 873.588 174.56 873.348 176.48H830.628C831.508 180.72 833.428 184.04 836.388 186.44C839.428 188.84 843.228 190.04 847.788 190.04C853.948 190.04 858.868 187.76 862.548 183.2L871.908 191.24C866.228 198.6 857.948 202.28 847.068 202.28C838.108 202.28 830.788 199.52 825.108 194C819.508 188.48 816.707 181.16 816.707 172.04C816.707 163.08 819.427 155.84 824.867 150.32C830.387 144.72 837.468 141.92 846.108 141.92C854.268 141.92 860.907 144.68 866.027 150.2C871.147 155.72 873.708 162.76 873.708 171.32ZM855.228 157.28C852.828 155.12 849.747 154.04 845.987 154.04C842.227 154.04 838.987 155.08 836.267 157.16C833.627 159.24 831.827 162.16 830.867 165.92H860.147C859.267 162.24 857.628 159.36 855.228 157.28Z" fill="black"/>
</g>
<defs>
<clipPath id="clip0_12_44">
<rect width="1500" height="350" fill="white"/>
</clipPath>
</defs>
</svg>
